<?xml version="1.0" encoding="UTF-8" standalone="no"?>
<!-- Created with Inkscape (http://www.inkscape.org/) -->

<svg
   xmlns:dc="http://purl.org/dc/elements/1.1/"
   xmlns:cc="http://creativecommons.org/ns#"
   xmlns:rdf="http://www.w3.org/1999/02/22-rdf-syntax-ns#"
   xmlns:svg="http://www.w3.org/2000/svg"
   xmlns="http://www.w3.org/2000/svg"
   xmlns:sodipodi="http://sodipodi.sourceforge.net/DTD/sodipodi-0.dtd"
   xmlns:inkscape="http://www.inkscape.org/namespaces/inkscape"
   width="1000"
   height="350"
   viewBox="0 0 264.58333 92.604173"
   version="1.1"
   id="svg8"
   inkscape:version="0.92.4 5da689c313, 2019-01-14"
   sodipodi:docname="final-teal-full.svg"
   inkscape:export-filename="/home/navi/Documents/Kazi/SDN/alpha/new logo/logo black gray.png"
   inkscape:export-xdpi="96"
   inkscape:export-ydpi="96">
  <defs
     id="defs2" />
  <sodipodi:namedview
     id="base"
     pagecolor="#ffffff"
     bordercolor="#666666"
     borderopacity="1.0"
     inkscape:pageopacity="0.0"
     inkscape:pageshadow="2"
     inkscape:zoom="1.4"
     inkscape:cx="660.47153"
     inkscape:cy="158.94226"
     inkscape:document-units="mm"
     inkscape:current-layer="layer1"
     showgrid="false"
     units="px"
     showguides="true"
     inkscape:guide-bbox="true"
     inkscape:window-width="1366"
     inkscape:window-height="703"
     inkscape:window-x="0"
     inkscape:window-y="34"
     inkscape:window-maximized="1">
    <inkscape:grid
       type="xygrid"
       id="grid3717" />
    <sodipodi:guide
       position="63.5,74.083334"
       orientation="1,0"
       id="guide3719"
       inkscape:locked="false" />
    <sodipodi:guide
       position="201.08333,74.083335"
       orientation="1,0"
       id="guide3721"
       inkscape:locked="false" />
    <sodipodi:guide
       position="-43.832202,202.05577"
       orientation="0,1"
       id="guide3723"
       inkscape:locked="false" />
    <sodipodi:guide
       position="293.6875,64.633929"
       orientation="0,1"
       id="guide3727"
       inkscape:locked="false" />
    <sodipodi:guide
       position="280.45834,175.00298"
       orientation="0,1"
       id="guide3729"
       inkscape:locked="false" />
    <sodipodi:guide
       position="-85.526248,93.009798"
       orientation="0,1"
       id="guide3731"
       inkscape:locked="false" />
    <sodipodi:guide
       position="90.33631,312.58631"
       orientation="1,0"
       id="guide3733"
       inkscape:locked="false" />
    <sodipodi:guide
       position="119.0625,172.65612"
       orientation="1,0"
       id="guide3797"
       inkscape:locked="false" />
    <sodipodi:guide
       position="146.65476,146.65477"
       orientation="1,0"
       id="guide3799"
       inkscape:locked="false" />
    <sodipodi:guide
       position="173.49107,180.67262"
       orientation="1,0"
       id="guide3801"
       inkscape:locked="false" />
    <sodipodi:guide
       position="201.08333,147.03274"
       orientation="0,1"
       id="guide3830"
       inkscape:locked="false" />
    <sodipodi:guide
       position="201.08333,119.81846"
       orientation="0,1"
       id="guide3832"
       inkscape:locked="false" />
    <sodipodi:guide
       position="35.71875,273.84375"
       orientation="1,0"
       id="guide3866"
       inkscape:locked="false" />
    <sodipodi:guide
       position="134.70384,78.309974"
       orientation="0,1"
       id="guide4874"
       inkscape:locked="false" />
    <sodipodi:guide
       position="134.03567,19.377042"
       orientation="0,1"
       id="guide922"
       inkscape:locked="false" />
  </sodipodi:namedview>
  <metadata
     id="metadata5">
    <rdf:RDF>
      <cc:Work
         rdf:about="">
        <dc:format>image/svg+xml</dc:format>
        <dc:type
           rdf:resource="http://purl.org/dc/dcmitype/StillImage" />
        <dc:title></dc:title>
      </cc:Work>
    </rdf:RDF>
  </metadata>
  <g
     inkscape:label="Layer 1"
     inkscape:groupmode="layer"
     id="layer1"
     transform="translate(0,-204.39581)">
    <rect
       style="fill:#ffffff;stroke-width:0.44877508"
       id="rect932"
       width="161.20683"
       height="16.164249"
       x="96.005951"
       y="277.62292" />
    <rect
       style="opacity:1;fill:#000000;stroke:#000000;stroke-width:0;stroke-miterlimit:4;stroke-dasharray:none;stroke-opacity:1"
       id="rect4779-7-0-2-2-8-9"
       width="13.970418"
       height="43.70195"
       x="67.91024"
       y="268.52368"
       ry="0"
       transform="matrix(-1,0,0.45783994,0.88903464,0,0)" />
    <circle
       style="opacity:1;fill:#000000;stroke:none;stroke-width:0.19798246;stroke-miterlimit:4;stroke-dasharray:none;stroke-opacity:1"
       id="path3883-3"
       cx="34.314903"
       cy="251.9552"
       r="25.749311" />
    <path
       style="opacity:1;fill:#000000;stroke:none;stroke-width:1.23881567;stroke-miterlimit:4;stroke-dasharray:none;stroke-opacity:1"
       d="M 426.58008 84.328125 A 96.671853 96.671853 0 0 0 329.9082 181 A 96.671853 96.671853 0 0 0 426.58008 277.67188 A 96.671853 96.671853 0 0 0 523.25195 181 A 96.671853 96.671853 0 0 0 426.58008 84.328125 z M 426.58008 132.52344 A 48.476598 48.476598 0 0 1 475.05664 181 A 48.476598 48.476598 0 0 1 426.58008 229.47656 A 48.476598 48.476598 0 0 1 378.10352 181 A 48.476598 48.476598 0 0 1 426.58008 132.52344 z "
       transform="matrix(0.26458333,0,0,0.26458333,0,204.39581)"
       id="path3883-6-1" />
    <rect
       id="rect3735-3-6-7-1"
       width="12.407023"
       height="12.407023"
       x="249.97263"
       y="-257.00076"
       style="fill:#008080;stroke-width:0.12739401"
       transform="rotate(89.999971)" />
    <circle
       style="opacity:1;fill:#008080;stroke:none;stroke-width:0.22067496;stroke-miterlimit:4;stroke-dasharray:none;stroke-opacity:1"
       id="path3883-6"
       cx="40.727348"
       cy="249.33319"
       r="17.220526" />
    <circle
       style="opacity:1;fill:#000000;stroke:none;stroke-width:0.25039682;stroke-miterlimit:4;stroke-dasharray:none;stroke-opacity:1"
       id="path3883-6-1-8"
       cx="35.790672"
       cy="257.10614"
       r="19.539892" />
    <circle
       style="opacity:1;fill:#000000;stroke:none;stroke-width:0.32776996;stroke-miterlimit:4;stroke-dasharray:none;stroke-opacity:1"
       id="path3883-6-1-9"
       cx="164.3127"
       cy="252.17393"
       r="25.577761" />
    <path
       style="opacity:1;fill:#ffffff;stroke:none;stroke-width:0.64074451;stroke-miterlimit:4;stroke-dasharray:none;stroke-opacity:1"
       d="M 620.49414 130.50391 A 50.000946 50.000946 0 0 0 570.49219 180.50391 A 50.000946 50.000946 0 0 0 570.56836 182.66016 L 570.56836 277.25 L 670.41406 277.25 L 670.41406 182.10352 A 50.000946 50.000946 0 0 0 670.49414 180.50391 A 50.000946 50.000946 0 0 0 620.49414 130.50391 z "
       transform="matrix(0.26458333,0,0,0.26458333,0,204.39581)"
       id="path3883-2" />
    <rect
       style="opacity:1;fill:#000000;stroke:#000000;stroke-width:0;stroke-miterlimit:4;stroke-dasharray:none;stroke-opacity:1"
       id="rect4779-7-0"
       width="12.40483"
       height="63.791046"
       x="138.60071"
       y="213.83188"
       ry="0"
       transform="skewX(-0.0109567)" />
    <rect
       style="opacity:1;fill:#000000;stroke:#000000;stroke-width:0;stroke-miterlimit:4;stroke-dasharray:none;stroke-opacity:1"
       id="rect4779-7-0-3"
       width="12.471289"
       height="25.31875"
       x="177.49316"
       y="252.43321"
       ry="0"
       transform="skewX(-0.0277535)" />
    <path
       style="opacity:1;fill:#000000;stroke:none;stroke-width:1.23881567;stroke-miterlimit:4;stroke-dasharray:none;stroke-opacity:1"
       d="M 814.41992 82.181641 A 96.671851 96.671851 0 0 0 717.74805 178.85352 A 96.671851 96.671851 0 0 0 814.41992 275.52539 A 96.671851 96.671851 0 0 0 911.0918 178.85352 A 96.671851 96.671851 0 0 0 814.41992 82.181641 z M 814.41992 130.37695 A 48.4766 48.4766 0 0 1 862.89648 178.85352 A 48.4766 48.4766 0 0 1 814.41992 227.33008 A 48.4766 48.4766 0 0 1 765.94336 178.85352 A 48.4766 48.4766 0 0 1 814.41992 130.37695 z "
       transform="matrix(0.26458333,0,0,0.26458333,0,204.39581)"
       id="path3883-6-1-7" />
    <rect
       style="opacity:1;fill:#000000;stroke:#000000;stroke-width:0;stroke-miterlimit:4;stroke-dasharray:none;stroke-opacity:1"
       id="rect4779-7-0-9"
       width="12.40483"
       height="51.246986"
       x="228.66927"
       y="226.33444"
       ry="0"
       transform="skewX(-0.01363865)" />
    <rect
       style="opacity:1;fill:#000000;stroke:#000000;stroke-width:0;stroke-miterlimit:4;stroke-dasharray:none;stroke-opacity:1"
       id="rect4779-7-0-2"
       width="12.40483"
       height="63.212063"
       x="87.300789"
       y="226.76953"
       ry="0"
       transform="skewX(-0.01105706)" />
    <rect
       style="opacity:1;fill:#000000;stroke:#000000;stroke-width:0;stroke-miterlimit:4;stroke-dasharray:none;stroke-opacity:1"
       id="rect4779-7-0-2-2"
       width="12.40483"
       height="63.088364"
       x="75.093201"
       y="214.49197"
       ry="0"
       transform="skewX(-0.01107874)" />
    <rect
       style="opacity:1;fill:#000000;stroke:#000000;stroke-width:0;stroke-miterlimit:4;stroke-dasharray:none;stroke-opacity:1"
       id="rect4779-7-0-2-2-8"
       width="15.251353"
       height="47.70895"
       x="176.66782"
       y="254.99185"
       ry="0"
       transform="matrix(1,0,-0.45783994,0.88903464,0,0)" />
    <rect
       id="rect3735-3-6-7-1-3-6"
       width="2.7949023"
       height="15.207056"
       x="214.492"
       y="-87.45594"
       style="fill:#000000;stroke-width:0.06694025"
       transform="matrix(2.7894408e-6,1,-1,4.472986e-7,0,0)" />
    <rect
       id="rect3735-3-6-7-1-3-6-1"
       width="12.407023"
       height="12.407023"
       x="262.37958"
       y="-257.00076"
       style="fill:#000000;stroke-width:0.12739401"
       transform="rotate(89.999971)" />
    <rect
       style="opacity:1;fill:#800000;stroke:none;stroke-width:0;stroke-miterlimit:4;stroke-dasharray:none;stroke-opacity:1"
       id="rect5040"
       width="0.27988529"
       height="2.2808054e-11"
       x="70.027374"
       y="194.026" />
    <rect
       id="rect3735-3-6-7-1-3-6-9"
       width="2.7949023"
       height="15.207056"
       x="213.83192"
       y="-150.9641"
       style="fill:#000000;stroke-width:0.06694025"
       transform="matrix(2.7894407e-6,1,-1,4.472986e-7,0,0)" />
    <rect
       id="rect3735-3-6-7-1-3-6-3"
       width="2.7949023"
       height="15.207056"
       x="287.18671"
       y="-99.648811"
       style="fill:#000000;stroke-width:0.06694025"
       transform="matrix(2.7894407e-6,1,-1,4.472986e-7,0,0)" />
    <rect
       id="rect3735-3-6-7-1-3-6-3-1"
       width="2.7949023"
       height="15.207056"
       x="274.78659"
       y="-244.59311"
       style="fill:#000000;stroke-width:0.06694025"
       transform="matrix(2.7894407e-6,1,-1,4.472986e-7,0,0)" />
    <text
       xml:space="preserve"
       style="font-style:normal;font-weight:normal;font-size:15.6735754px;line-height:1.25;font-family:sans-serif;letter-spacing:0px;word-spacing:0px;fill:#ffffff;fill-opacity:1;stroke:none;stroke-width:0.39183939"
       x="20.45188"
       y="256.59427"
       id="text5104"><tspan
         sodipodi:role="line"
         id="tspan5102"
         x="20.45188"
         y="256.59427"
         style="font-style:normal;font-variant:normal;font-weight:bold;font-stretch:normal;font-family:FreeMono;-inkscape-font-specification:'FreeMono Bold';fill:#ffffff;stroke-width:0.39183939">&lt;/&gt;</tspan></text>
    <rect
       style="opacity:1;fill:#008080;stroke:none;stroke-width:0;stroke-miterlimit:4;stroke-dasharray:none;stroke-opacity:1"
       id="rect5127"
       width="1.8531065"
       height="60.582684"
       x="87.257019"
       y="226.7695" />
    <rect
       style="opacity:1;fill:#008080;stroke:none;stroke-width:0;stroke-miterlimit:4;stroke-dasharray:none;stroke-opacity:1"
       id="rect5127-7"
       width="1.8531065"
       height="60.285835"
       x="75.039131"
       y="217.29361" />
    <rect
       style="opacity:1;fill:#008080;stroke:none;stroke-width:0;stroke-miterlimit:4;stroke-dasharray:none;stroke-opacity:1"
       id="rect5127-7-3"
       width="1.8531065"
       height="60.864826"
       x="138.54764"
       y="216.75812" />
    <text
       xml:space="preserve"
       style="font-style:normal;font-weight:normal;font-size:10.4490509px;line-height:1.25;font-family:sans-serif;letter-spacing:0px;word-spacing:0px;fill:#008080;fill-opacity:1;stroke:none;stroke-width:0.39183939"
       x="100.13467"
       y="289.63513"
       id="text5199"><tspan
         sodipodi:role="line"
         id="tspan5197"
         x="100.13467"
         y="289.63513"
         style="font-style:normal;font-variant:normal;font-weight:bold;font-stretch:normal;font-size:10.97150326px;font-family:System-ui;-inkscape-font-specification:'System-ui Bold';fill:#008080;stroke-width:0.39183939">TECHNOLOGY DEVELOPMENT</tspan></text>
  </g>
</svg>
